<svg width="1208" height="196" viewBox="0 0 1208 196" fill="none" xmlns="http://www.w3.org/2000/svg">
<path d="M29 140L28 8L3.5 30L4.5 187L29 140Z" fill="#ABAFB2"/>
<path d="M161.5 138L165.5 9L190 31L189 188L161.5 138Z" fill="#ABAFB2"/>
<path d="M7.53774 186.712L29.5 140.5H162L184.856 186.669C185.843 188.663 184.392 191 182.167 191H10.2473C8.0433 191 6.59169 188.703 7.53774 186.712Z" fill="#FDDA52"/>
<path fill-rule="evenodd" clip-rule="evenodd" d="M153.619 5H39.3815C37.0621 5 34.8148 5.80624 33.0244 7.2807L8.27864 27.6596C6.20266 29.3692 5 31.9176 5 34.6069V182C5 186.971 9.02944 191 14 191H179C183.971 191 188 186.971 188 182V34.6069C188 31.9176 186.797 29.3692 184.721 27.6596L159.976 7.2807C158.185 5.80624 155.938 5 153.619 5ZM39.3815 0C35.9024 0 32.5315 1.20936 29.8459 3.42105L5.1001 23.7999C1.8708 26.4593 0 30.4235 0 34.6069V182C0 189.732 6.26801 196 14 196H179C186.732 196 193 189.732 193 182V34.6069C193 30.4235 191.129 26.4593 187.9 23.7999L163.154 3.42105C160.469 1.20936 157.098 0 153.619 0H39.3815Z" fill="#04000C"/>
<path fill-rule="evenodd" clip-rule="evenodd" d="M3.75073 187.409L28.2507 136.909L32.7493 139.091L8.24927 189.591L3.75073 187.409Z" fill="#04000C"/>
<path fill-rule="evenodd" clip-rule="evenodd" d="M189.74 188.39L163.24 134.89L158.76 137.11L185.26 190.61L189.74 188.39Z" fill="#04000C"/>
<path d="M26 17C26 9.26801 32.268 3 40 3H150C157.732 3 164 9.26801 164 17V127C164 134.732 157.732 141 150 141H40C32.268 141 26 134.732 26 127V17Z" fill="#029EF1"/>
<path d="M142.807 87.6364V124H138.403V87.6364H142.807Z" fill="#04000C"/>
<path d="M67.9574 36.696C67.7529 34.6335 66.875 33.0312 65.3239 31.8892C63.7727 30.7471 61.6676 30.1761 59.0085 30.1761C57.2017 30.1761 55.6761 30.4318 54.4318 30.9432C53.1875 31.4375 52.233 32.1278 51.5682 33.0142C50.9205 33.9006 50.5966 34.9062 50.5966 36.0312C50.5625 36.9687 50.7585 37.7869 51.1847 38.4858C51.6279 39.1846 52.233 39.7898 53 40.3011C53.7671 40.7954 54.6534 41.2301 55.6591 41.6051C56.6648 41.9631 57.7386 42.2699 58.8807 42.5256L63.5852 43.6506C65.8693 44.1619 67.9659 44.8437 69.875 45.696C71.7841 46.5483 73.4375 47.5966 74.8352 48.8409C76.233 50.0852 77.3154 51.5511 78.0824 53.2386C78.8665 54.9261 79.2671 56.8608 79.2841 59.0426C79.2671 62.2471 78.4489 65.0256 76.8296 67.3778C75.2273 69.7131 72.9091 71.5284 69.875 72.8238C66.858 74.1023 63.2188 74.7415 58.9574 74.7415C54.7301 74.7415 51.0483 74.0937 47.9119 72.7983C44.7926 71.5028 42.3551 69.5852 40.5994 67.0454C38.8608 64.4886 37.9489 61.3267 37.8636 57.5596H48.5767C48.696 59.3153 49.1989 60.7812 50.0852 61.9574C50.9886 63.1165 52.1904 63.9943 53.6904 64.5909C55.2074 65.1704 56.9205 65.4602 58.8296 65.4602C60.7046 65.4602 62.3324 65.1875 63.7131 64.642C65.1108 64.0966 66.1932 63.3381 66.9602 62.3665C67.7273 61.3949 68.1108 60.2784 68.1108 59.017C68.1108 57.8409 67.7614 56.8523 67.0625 56.0511C66.3807 55.25 65.375 54.5682 64.0455 54.0057C62.733 53.4432 61.1222 52.9318 59.2131 52.4716L53.5114 51.0398C49.0966 49.9659 45.6108 48.2869 43.054 46.0028C40.4972 43.7187 39.2273 40.642 39.2443 36.7727C39.2273 33.6023 40.071 30.8324 41.7756 28.4631C43.4972 26.0937 45.858 24.2443 48.858 22.9148C51.858 21.5852 55.2671 20.9204 59.0852 20.9204C62.9716 20.9204 66.3636 21.5852 69.2614 22.9148C72.1761 24.2443 74.4432 26.0937 76.0625 28.4631C77.6818 30.8324 78.5171 33.5767 78.5682 36.696H67.9574Z" fill="white"/>
<path fill-rule="evenodd" clip-rule="evenodd" d="M23.5 17C23.5 7.8873 30.8873 0.5 40 0.5H150C159.113 0.5 166.5 7.8873 166.5 17V127C166.5 136.113 159.113 143.5 150 143.5H40C30.8873 143.5 23.5 136.113 23.5 127V17ZM40 5.5C33.6487 5.5 28.5 10.6487 28.5 17V127C28.5 133.351 33.6487 138.5 40 138.5H150C156.351 138.5 161.5 133.351 161.5 127V17C161.5 10.6487 156.351 5.5 150 5.5H40Z" fill="#04000C"/>
<path d="M232 140L231 8L206.5 30L207.5 187L232 140Z" fill="#ABAFB2"/>
<path d="M364.5 138L368.5 9L393 31L392 188L364.5 138Z" fill="#ABAFB2"/>
<path d="M210.538 186.712L232.5 140.5H365L387.856 186.669C388.843 188.663 387.392 191 385.167 191H213.247C211.043 191 209.592 188.703 210.538 186.712Z" fill="#DDDFDA"/>
<path fill-rule="evenodd" clip-rule="evenodd" d="M356.619 5H242.381C240.062 5 237.815 5.80624 236.024 7.2807L211.279 27.6596C209.203 29.3692 208 31.9176 208 34.6069V182C208 186.971 212.029 191 217 191H382C386.971 191 391 186.971 391 182V34.6069C391 31.9176 389.797 29.3692 387.721 27.6596L362.976 7.2807C361.185 5.80624 358.938 5 356.619 5ZM242.381 0C238.902 0 235.531 1.20936 232.846 3.42105L208.1 23.7999C204.871 26.4593 203 30.4235 203 34.6069V182C203 189.732 209.268 196 217 196H382C389.732 196 396 189.732 396 182V34.6069C396 30.4235 394.129 26.4593 390.9 23.7999L366.154 3.42105C363.469 1.20936 360.098 0 356.619 0H242.381Z" fill="#04000C"/>
<path fill-rule="evenodd" clip-rule="evenodd" d="M206.751 187.409L231.251 136.909L235.749 139.091L211.249 189.591L206.751 187.409Z" fill="#04000C"/>
<path fill-rule="evenodd" clip-rule="evenodd" d="M392.74 188.39L366.24 134.89L361.76 137.11L388.26 190.61L392.74 188.39Z" fill="#04000C"/>
<path d="M229 17C229 9.26801 235.268 3 243 3H353C360.732 3 367 9.26801 367 17V127C367 134.732 360.732 141 353 141H243C235.268 141 229 134.732 229 127V17Z" fill="white"/>
<path d="M357.298 119.81L356.801 132.594H352.256V124H349.699V119.81H357.298ZM326.403 124V87.6364H330.594V119.952H349.344V87.6364H353.534V124H326.403Z" fill="#04000C"/>
<path d="M259.338 74L244.355 21.6364H256.449L265.116 58.0199H265.551L275.114 21.6364H285.469L295.006 58.0966H295.466L304.134 21.6364H316.227L301.244 74H290.455L280.483 39.7642H280.074L270.128 74H259.338Z" fill="#04000C"/>
<path fill-rule="evenodd" clip-rule="evenodd" d="M226.5 17C226.5 7.8873 233.887 0.5 243 0.5H353C362.113 0.5 369.5 7.8873 369.5 17V127C369.5 136.113 362.113 143.5 353 143.5H243C233.887 143.5 226.5 136.113 226.5 127V17ZM243 5.5C236.649 5.5 231.5 10.6487 231.5 17V127C231.5 133.351 236.649 138.5 243 138.5H353C359.351 138.5 364.5 133.351 364.5 127V17C364.5 10.6487 359.351 5.5 353 5.5H243Z" fill="#04000C"/>
<path d="M435 140L434 8L409.5 30L410.5 187L435 140Z" fill="#ABAFB2"/>
<path d="M567.5 138L571.5 9L596 31L595 188L567.5 138Z" fill="#ABAFB2"/>
<path d="M413.538 186.712L435.5 140.5H568L590.856 186.669C591.843 188.663 590.392 191 588.167 191H416.247C414.043 191 412.592 188.703 413.538 186.712Z" fill="#DDDFDA"/>
<path fill-rule="evenodd" clip-rule="evenodd" d="M559.619 5H445.381C443.062 5 440.815 5.80624 439.024 7.2807L414.279 27.6596C412.203 29.3692 411 31.9176 411 34.6069V182C411 186.971 415.029 191 420 191H585C589.971 191 594 186.971 594 182V34.6069C594 31.9176 592.797 29.3692 590.721 27.6596L565.976 7.2807C564.185 5.80624 561.938 5 559.619 5ZM445.381 0C441.902 0 438.531 1.20936 435.846 3.42105L411.1 23.7999C407.871 26.4593 406 30.4235 406 34.6069V182C406 189.732 412.268 196 420 196H585C592.732 196 599 189.732 599 182V34.6069C599 30.4235 597.129 26.4593 593.9 23.7999L569.154 3.42105C566.469 1.20936 563.098 0 559.619 0H445.381Z" fill="#04000C"/>
<path fill-rule="evenodd" clip-rule="evenodd" d="M409.751 187.409L434.251 136.909L438.749 139.091L414.249 189.591L409.751 187.409Z" fill="#04000C"/>
<path fill-rule="evenodd" clip-rule="evenodd" d="M595.74 188.39L569.24 134.89L564.76 137.11L591.26 190.61L595.74 188.39Z" fill="#04000C"/>
<path d="M432 17C432 9.26801 438.268 3 446 3H556C563.732 3 570 9.26801 570 17V127C570 134.732 563.732 141 556 141H446C438.268 141 432 134.732 432 127V17Z" fill="white"/>
<path d="M555.733 120.094L555.236 132.594H550.903V124H547.423V120.094H555.733ZM513.403 87.6364H517.807V119.952H530.591V87.6364H534.994V119.952H547.778V87.6364H552.182V124H513.403V87.6364Z" fill="#04000C"/>
<path d="M497.67 47.8182C497.67 53.5284 496.588 58.3864 494.423 62.392C492.276 66.3977 489.344 69.4574 485.628 71.571C481.929 73.6676 477.77 74.7159 473.151 74.7159C468.497 74.7159 464.321 73.6591 460.622 71.5454C456.923 69.4318 454 66.3721 451.852 62.3665C449.705 58.3608 448.631 53.5114 448.631 47.8182C448.631 42.1079 449.705 37.25 451.852 33.2443C454 29.2386 456.923 26.1875 460.622 24.0909C464.321 21.9773 468.497 20.9204 473.151 20.9204C477.77 20.9204 481.929 21.9773 485.628 24.0909C489.344 26.1875 492.276 29.2386 494.423 33.2443C496.588 37.25 497.67 42.1079 497.67 47.8182ZM486.446 47.8182C486.446 44.1193 485.892 41 484.784 38.4602C483.693 35.9204 482.151 33.9943 480.156 32.6818C478.162 31.3693 475.827 30.7131 473.151 30.7131C470.474 30.7131 468.139 31.3693 466.145 32.6818C464.151 33.9943 462.599 35.9204 461.491 38.4602C460.401 41 459.855 44.1193 459.855 47.8182C459.855 51.517 460.401 54.6364 461.491 57.1761C462.599 59.7159 464.151 61.642 466.145 62.9545C468.139 64.267 470.474 64.9233 473.151 64.9233C475.827 64.9233 478.162 64.267 480.156 62.9545C482.151 61.642 483.693 59.7159 484.784 57.1761C485.892 54.6364 486.446 51.517 486.446 47.8182Z" fill="#04000C"/>
<path fill-rule="evenodd" clip-rule="evenodd" d="M429.5 17C429.5 7.8873 436.887 0.5 446 0.5H556C565.113 0.5 572.5 7.8873 572.5 17V127C572.5 136.113 565.113 143.5 556 143.5H446C436.887 143.5 429.5 136.113 429.5 127V17ZM446 5.5C439.649 5.5 434.5 10.6487 434.5 17V127C434.5 133.351 439.649 138.5 446 138.5H556C562.351 138.5 567.5 133.351 567.5 127V17C567.5 10.6487 562.351 5.5 556 5.5H446Z" fill="#04000C"/>
<path d="M638 140L637 8L612.5 30L613.5 187L638 140Z" fill="#ABAFB2"/>
<path d="M770.5 138L774.5 9L799 31L798 188L770.5 138Z" fill="#ABAFB2"/>
<path d="M616.538 186.712L638.5 140.5H771L793.856 186.669C794.843 188.663 793.392 191 791.167 191H619.247C617.043 191 615.592 188.703 616.538 186.712Z" fill="#DDDFDA"/>
<path fill-rule="evenodd" clip-rule="evenodd" d="M762.619 5H648.381C646.062 5 643.815 5.80624 642.024 7.2807L617.279 27.6596C615.203 29.3692 614 31.9176 614 34.6069V182C614 186.971 618.029 191 623 191H788C792.971 191 797 186.971 797 182V34.6069C797 31.9176 795.797 29.3692 793.721 27.6596L768.976 7.2807C767.185 5.80624 764.938 5 762.619 5ZM648.381 0C644.902 0 641.531 1.20936 638.846 3.42105L614.1 23.7999C610.871 26.4593 609 30.4235 609 34.6069V182C609 189.732 615.268 196 623 196H788C795.732 196 802 189.732 802 182V34.6069C802 30.4235 800.129 26.4593 796.9 23.7999L772.154 3.42105C769.469 1.20936 766.098 0 762.619 0H648.381Z" fill="#04000C"/>
<path fill-rule="evenodd" clip-rule="evenodd" d="M612.751 187.409L637.251 136.909L641.749 139.091L617.249 189.591L612.751 187.409Z" fill="#04000C"/>
<path fill-rule="evenodd" clip-rule="evenodd" d="M798.74 188.39L772.24 134.89L767.76 137.11L794.26 190.61L798.74 188.39Z" fill="#04000C"/>
<path d="M635 17C635 9.26801 641.268 3 649 3H759C766.732 3 773 9.26801 773 17V127C773 134.732 766.732 141 759 141H649C641.268 141 635 134.732 635 127V17Z" fill="white"/>
<path d="M748.051 124.497C745.707 124.497 743.618 124.095 741.783 123.29C739.96 122.485 738.51 121.366 737.433 119.934C736.368 118.49 735.788 116.815 735.693 114.909H740.168C740.262 116.081 740.665 117.093 741.375 117.945C742.085 118.786 743.014 119.437 744.163 119.898C745.311 120.36 746.583 120.591 747.98 120.591C749.543 120.591 750.928 120.319 752.135 119.774C753.342 119.23 754.289 118.472 754.976 117.501C755.662 116.531 756.006 115.406 756.006 114.128C756.006 112.79 755.674 111.612 755.011 110.594C754.348 109.565 753.378 108.76 752.099 108.18C750.821 107.6 749.259 107.31 747.412 107.31H744.5V103.403H747.412C748.856 103.403 750.123 103.143 751.212 102.622C752.312 102.101 753.171 101.367 753.786 100.42C754.414 99.4735 754.727 98.3608 754.727 97.0824C754.727 95.8513 754.455 94.7801 753.911 93.8686C753.366 92.9572 752.597 92.2469 751.602 91.7379C750.62 91.2289 749.46 90.9744 748.122 90.9744C746.867 90.9744 745.684 91.2053 744.571 91.6669C743.47 92.1167 742.571 92.7737 741.872 93.6378C741.174 94.4901 740.795 95.5199 740.736 96.7273H736.474C736.545 94.8215 737.12 93.1525 738.197 91.7202C739.274 90.2761 740.683 89.1515 742.423 88.3466C744.174 87.5417 746.098 87.1392 748.193 87.1392C750.442 87.1392 752.372 87.595 753.982 88.5064C755.591 89.406 756.828 90.5957 757.692 92.0753C758.557 93.5549 758.989 95.153 758.989 96.8693C758.989 98.9172 758.45 100.663 757.373 102.107C756.308 103.551 754.857 104.552 753.023 105.108V105.392C755.319 105.771 757.112 106.747 758.403 108.322C759.693 109.884 760.338 111.82 760.338 114.128C760.338 116.105 759.799 117.88 758.722 119.455C757.657 121.017 756.201 122.248 754.354 123.148C752.508 124.047 750.407 124.497 748.051 124.497Z" fill="#04000C"/>
<path d="M650.551 74V21.6364H671.21C675.182 21.6364 678.565 22.3949 681.361 23.9119C684.156 25.4119 686.287 27.5 687.753 30.1761C689.236 32.8352 689.977 35.9034 689.977 39.3807C689.977 42.8579 689.227 45.9261 687.727 48.5852C686.227 51.2443 684.054 53.3153 681.207 54.7983C678.378 56.2812 674.952 57.0227 670.929 57.0227H657.761V48.1506H669.139C671.27 48.1506 673.026 47.7841 674.406 47.0511C675.804 46.3011 676.844 45.2699 677.526 43.9574C678.224 42.6278 678.574 41.1023 678.574 39.3807C678.574 37.642 678.224 36.125 677.526 34.8295C676.844 33.517 675.804 32.5028 674.406 31.7869C673.009 31.054 671.236 30.6875 669.088 30.6875H661.622V74H650.551Z" fill="#04000C"/>
<path fill-rule="evenodd" clip-rule="evenodd" d="M632.5 17C632.5 7.8873 639.887 0.5 649 0.5H759C768.113 0.5 775.5 7.8873 775.5 17V127C775.5 136.113 768.113 143.5 759 143.5H649C639.887 143.5 632.5 136.113 632.5 127V17ZM649 5.5C642.649 5.5 637.5 10.6487 637.5 17V127C637.5 133.351 642.649 138.5 649 138.5H759C765.351 138.5 770.5 133.351 770.5 127V17C770.5 10.6487 765.351 5.5 759 5.5H649Z" fill="#04000C"/>
<path d="M841 140L840 8L815.5 30L816.5 187L841 140Z" fill="#ABAFB2"/>
<path d="M973.5 138L977.5 9L1002 31L1001 188L973.5 138Z" fill="#ABAFB2"/>
<path d="M819.538 186.712L841.5 140.5H974L996.856 186.669C997.843 188.663 996.392 191 994.167 191H822.247C820.043 191 818.592 188.703 819.538 186.712Z" fill="#DDDFDA"/>
<path fill-rule="evenodd" clip-rule="evenodd" d="M965.619 5H851.381C849.062 5 846.815 5.80624 845.024 7.2807L820.279 27.6596C818.203 29.3692 817 31.9176 817 34.6069V182C817 186.971 821.029 191 826 191H991C995.971 191 1000 186.971 1000 182V34.6069C1000 31.9176 998.797 29.3692 996.721 27.6596L971.976 7.2807C970.185 5.80624 967.938 5 965.619 5ZM851.381 0C847.902 0 844.531 1.20936 841.846 3.42105L817.1 23.7999C813.871 26.4593 812 30.4235 812 34.6069V182C812 189.732 818.268 196 826 196H991C998.732 196 1005 189.732 1005 182V34.6069C1005 30.4235 1003.13 26.4593 999.9 23.7999L975.154 3.42105C972.469 1.20936 969.098 0 965.619 0H851.381Z" fill="#04000C"/>
<path fill-rule="evenodd" clip-rule="evenodd" d="M815.751 187.409L840.251 136.909L844.749 139.091L820.249 189.591L815.751 187.409Z" fill="#04000C"/>
<path fill-rule="evenodd" clip-rule="evenodd" d="M1001.74 188.39L975.24 134.89L970.76 137.11L997.26 190.61L1001.74 188.39Z" fill="#04000C"/>
<path d="M838 17C838 9.26801 844.268 3 852 3H962C969.732 3 976 9.26801 976 17V127C976 134.732 969.732 141 962 141H852C844.268 141 838 134.732 838 127V17Z" fill="white"/>
<path d="M941.321 124.497V120.378H943.594C944.47 120.378 945.204 120.206 945.795 119.863C946.399 119.52 946.896 119.076 947.287 118.531C947.689 117.987 948.021 117.419 948.281 116.827L948.849 115.477L936.278 87.6364H941.037L951.051 110.222L960.213 87.6364H964.901L952.33 118.105C951.832 119.241 951.264 120.295 950.625 121.266C949.998 122.236 949.139 123.018 948.05 123.609C946.973 124.201 945.511 124.497 943.665 124.497H941.321Z" fill="#04000C"/>
<path d="M852.551 74V21.6364H887.835V30.7642H863.622V43.2415H886.02V52.3693H863.622V64.8721H887.938V74H852.551Z" fill="#04000C"/>
<path fill-rule="evenodd" clip-rule="evenodd" d="M835.5 17C835.5 7.8873 842.887 0.5 852 0.5H962C971.113 0.5 978.5 7.8873 978.5 17V127C978.5 136.113 971.113 143.5 962 143.5H852C842.887 143.5 835.5 136.113 835.5 127V17ZM852 5.5C845.649 5.5 840.5 10.6487 840.5 17V127C840.5 133.351 845.649 138.5 852 138.5H962C968.351 138.5 973.5 133.351 973.5 127V17C973.5 10.6487 968.351 5.5 962 5.5H852Z" fill="#04000C"/>
<path d="M1044 140L1043 8L1018.5 30L1019.5 187L1044 140Z" fill="#ABAFB2"/>
<path d="M1176.5 138L1180.5 9L1205 31L1204 188L1176.5 138Z" fill="#ABAFB2"/>
<path d="M1022.54 186.712L1044.5 140.5H1177L1199.86 186.669C1200.84 188.663 1199.39 191 1197.17 191H1025.25C1023.04 191 1021.59 188.703 1022.54 186.712Z" fill="#DDDFDA"/>
<path fill-rule="evenodd" clip-rule="evenodd" d="M1168.62 5H1054.38C1052.06 5 1049.81 5.80624 1048.02 7.2807L1023.28 27.6596C1021.2 29.3692 1020 31.9176 1020 34.6069V182C1020 186.971 1024.03 191 1029 191H1194C1198.97 191 1203 186.971 1203 182V34.6069C1203 31.9176 1201.8 29.3692 1199.72 27.6596L1174.98 7.2807C1173.19 5.80624 1170.94 5 1168.62 5ZM1054.38 0C1050.9 0 1047.53 1.20936 1044.85 3.42105L1020.1 23.7999C1016.87 26.4593 1015 30.4235 1015 34.6069V182C1015 189.732 1021.27 196 1029 196H1194C1201.73 196 1208 189.732 1208 182V34.6069C1208 30.4235 1206.13 26.4593 1202.9 23.7999L1178.15 3.42105C1175.47 1.20936 1172.1 0 1168.62 0H1054.38Z" fill="#04000C"/>
<path fill-rule="evenodd" clip-rule="evenodd" d="M1018.75 187.409L1043.25 136.909L1047.75 139.091L1023.25 189.591L1018.75 187.409Z" fill="#04000C"/>
<path fill-rule="evenodd" clip-rule="evenodd" d="M1204.74 188.39L1178.24 134.89L1173.76 137.11L1200.26 190.61L1204.74 188.39Z" fill="#04000C"/>
<path d="M1041 17C1041 9.26801 1047.27 3 1055 3H1165C1172.73 3 1179 9.26801 1179 17V127C1179 134.732 1172.73 141 1165 141H1055C1047.27 141 1041 134.732 1041 127V17Z" fill="white"/>
<path d="M1161.78 124L1149.28 107.31H1144.81V124H1140.4V87.6364H1144.81V103.403H1146.72L1161.28 87.6364H1166.54L1151.84 103.616L1167.04 124H1161.78Z" fill="#04000C"/>
<path d="M1055.55 74V21.6364H1076.21C1080.16 21.6364 1083.54 22.3437 1086.34 23.7585C1089.15 25.1562 1091.29 27.142 1092.75 29.7159C1094.24 32.2727 1094.98 35.2812 1094.98 38.7415C1094.98 42.2187 1094.23 45.2102 1092.73 47.7159C1091.23 50.2045 1089.05 52.1136 1086.21 53.4432C1083.38 54.7727 1079.95 55.4375 1075.93 55.4375H1062.1V46.5398H1074.14C1076.25 46.5398 1078.01 46.25 1079.41 45.6704C1080.8 45.0909 1081.84 44.2216 1082.53 43.0625C1083.22 41.9034 1083.57 40.4631 1083.57 38.7415C1083.57 37.0028 1083.22 35.5369 1082.53 34.3437C1081.84 33.1506 1080.8 32.2471 1079.38 31.6335C1077.98 31.0028 1076.22 30.6875 1074.09 30.6875H1066.62V74H1055.55ZM1083.83 50.1704L1096.84 74H1084.62L1071.89 50.1704H1083.83Z" fill="#04000C"/>
<path fill-rule="evenodd" clip-rule="evenodd" d="M1038.5 17C1038.5 7.8873 1045.89 0.5 1055 0.5H1165C1174.11 0.5 1181.5 7.8873 1181.5 17V127C1181.5 136.113 1174.11 143.5 1165 143.5H1055C1045.89 143.5 1038.5 136.113 1038.5 127V17ZM1055 5.5C1048.65 5.5 1043.5 10.6487 1043.5 17V127C1043.5 133.351 1048.65 138.5 1055 138.5H1165C1171.35 138.5 1176.5 133.351 1176.5 127V17C1176.5 10.6487 1171.35 5.5 1165 5.5H1055Z" fill="#04000C"/>
</svg>
